<svg width="14" height="14" viewBox="0 0 14 14" fill="none" xmlns="http://www.w3.org/2000/svg">
<path d="M8.12698 7.17011C8.12276 7.39186 8.05279 7.60736 7.92595 7.78929C7.79911 7.97123 7.6211 8.11141 7.4145 8.19206C7.2079 8.27272 6.982 8.29022 6.76544 8.24235C6.54889 8.19447 6.35142 8.08338 6.19807 7.92315C6.04472 7.76292 5.9424 7.56077 5.90407 7.34232C5.86574 7.12387 5.89313 6.89896 5.98277 6.69609C6.07241 6.49323 6.22027 6.32154 6.40759 6.20281C6.59492 6.08407 6.81328 6.02362 7.035 6.02912C7.32963 6.04004 7.60842 6.16527 7.81227 6.37827C8.01612 6.59127 8.12901 6.87529 8.12698 7.17011Z" fill="#8200DB"/>
<path d="M8.93408 3.66312H5.13662C4.76087 3.66312 4.40051 3.81238 4.13481 4.07808C3.86911 4.34378 3.71984 4.70414 3.71984 5.0799V8.96275C3.71984 9.1488 3.75649 9.33304 3.82769 9.50493C3.89889 9.67682 4.00325 9.83301 4.13481 9.96457C4.26637 10.0961 4.42255 10.2005 4.59444 10.2717C4.76634 10.3429 4.95057 10.3795 5.13662 10.3795H8.93408C9.12013 10.3795 9.30436 10.3429 9.47625 10.2717C9.64815 10.2005 9.80433 10.0961 9.93589 9.96457C10.0675 9.83301 10.1718 9.67682 10.243 9.50493C10.3142 9.33304 10.3509 9.1488 10.3509 8.96275V5.0869C10.3516 4.90031 10.3155 4.71541 10.2447 4.54279C10.1738 4.37017 10.0696 4.21323 9.93796 4.08097C9.80635 3.9487 9.64992 3.84371 9.47766 3.77201C9.30539 3.7003 9.12067 3.6633 8.93408 3.66312ZM7.035 9.06915C6.65908 9.07763 6.28916 8.97392 5.97244 8.77124C5.65572 8.56856 5.40658 8.27611 5.2568 7.93122C5.10703 7.58632 5.06341 7.20461 5.13152 6.83482C5.19964 6.46502 5.37639 6.12391 5.63922 5.85501C5.90205 5.58611 6.23904 5.40162 6.60719 5.32509C6.97533 5.24855 7.35793 5.28344 7.70616 5.42531C8.05438 5.56718 8.35244 5.80958 8.5623 6.12159C8.77215 6.4336 8.88428 6.80106 8.88438 7.17707C8.88743 7.42281 8.84198 7.66673 8.75065 7.89488C8.65932 8.12303 8.52388 8.33093 8.35211 8.50667C8.18033 8.68242 7.97557 8.82256 7.74957 8.91908C7.52356 9.01559 7.28074 9.06659 7.035 9.06915ZM9.09017 5.2857C9.04398 5.28571 8.99826 5.2765 8.95567 5.25861C8.91308 5.24073 8.87449 5.21453 8.84216 5.18154C8.80983 5.14856 8.7844 5.10945 8.76737 5.06652C8.75034 5.02358 8.74205 4.97768 8.74298 4.9315C8.74298 4.83756 8.78029 4.74747 8.84672 4.68105C8.91314 4.61462 9.00324 4.5773 9.09717 4.5773C9.19111 4.5773 9.2812 4.61462 9.34763 4.68105C9.41405 4.74747 9.45137 4.83756 9.45137 4.9315C9.45276 4.98151 9.44333 5.03122 9.42372 5.07724C9.40411 5.12326 9.37479 5.1645 9.33776 5.19814C9.30074 5.23178 9.25688 5.25702 9.20919 5.27213C9.16151 5.28724 9.11112 5.29187 9.06147 5.2857H9.09017Z" fill="#8200DB"/>
<path d="M7.035 8.76206e-05C5.17851 -0.00919484 3.39436 0.719391 2.07506 2.02557C0.755761 3.33174 0.00937008 5.10851 8.76206e-05 6.965C-0.00919484 8.82149 0.719391 10.6056 2.02557 11.9249C3.33174 13.2442 5.10851 13.9906 6.965 13.9999C7.88424 14.0045 8.79539 13.828 9.64641 13.4805C10.4974 13.1329 11.2717 12.6212 11.9249 11.9744C12.5782 11.3277 13.0977 10.5586 13.4537 9.71109C13.8097 8.86358 13.9953 7.95424 13.9999 7.035C14.0045 6.11576 13.828 5.20461 13.4805 4.35358C13.1329 3.50256 12.6212 2.72832 11.9744 2.07506C11.3277 1.42181 10.5586 0.902343 9.71109 0.546318C8.86358 0.190293 7.95424 0.00468383 7.035 8.76206e-05ZM11.286 8.89138C11.288 9.20541 11.2276 9.51672 11.1083 9.80724C10.9891 10.0978 10.8133 10.3617 10.5913 10.5838C10.3693 10.8059 10.1054 10.9817 9.81489 11.1011C9.5244 11.2204 9.21312 11.2809 8.89908 11.279H5.17232C4.85828 11.281 4.54698 11.2206 4.25646 11.1013C3.96594 10.9821 3.70198 10.8063 3.47988 10.5843C3.25779 10.3623 3.08197 10.0984 2.96263 9.80789C2.84329 9.5174 2.78279 9.20612 2.78465 8.89208V5.16462C2.7827 4.85058 2.84311 4.53928 2.96236 4.24876C3.08162 3.95824 3.25736 3.69428 3.47939 3.47218C3.70142 3.25009 3.96533 3.07427 4.25581 2.95493C4.5463 2.83559 4.85758 2.77509 5.17162 2.77695H8.89908C9.21306 2.77509 9.52428 2.83557 9.81472 2.95487C10.1052 3.07416 10.369 3.24992 10.5911 3.47194C10.8131 3.69396 10.9888 3.95784 11.1081 4.24828C11.2274 4.53871 11.2879 4.84994 11.286 5.16392V8.89138Z" fill="#8200DB"/>
</svg>
