<svg width="100" height="25" viewBox="0 0 100 25" fill="none" xmlns="http://www.w3.org/2000/svg">
<path d="M24.52 20.2C23.8267 20.2 23.2 20.06 22.64 19.78C22.08 19.4867 21.6333 19.0933 21.3 18.6C20.9667 18.1067 20.7867 17.54 20.76 16.9V13.48C20.7867 12.84 20.9667 12.2733 21.3 11.78C21.6467 11.2733 22.0933 10.8733 22.64 10.58C23.2 10.2867 23.8267 10.14 24.52 10.14C25.4133 10.14 26.2133 10.36 26.92 10.8C27.6267 11.24 28.18 11.84 28.58 12.6C28.9933 13.36 29.2 14.22 29.2 15.18C29.2 16.1267 28.9933 16.98 28.58 17.74C28.18 18.5 27.6267 19.1 26.92 19.54C26.2133 19.98 25.4133 20.2 24.52 20.2ZM19.16 24.04V10.34H21.78V12.88L21.34 15.22L21.76 17.56V24.04H19.16ZM24.06 17.78C24.54 17.78 24.9667 17.6733 25.34 17.46C25.7133 17.2333 26 16.9267 26.2 16.54C26.4133 16.14 26.52 15.68 26.52 15.16C26.52 14.6533 26.4133 14.2067 26.2 13.82C26 13.42 25.7133 13.1133 25.34 12.9C24.9667 12.6733 24.54 12.56 24.06 12.56C23.5933 12.56 23.1733 12.6733 22.8 12.9C22.4267 13.1133 22.1333 13.42 21.92 13.82C21.72 14.2067 21.62 14.6533 21.62 15.16C21.62 15.68 21.72 16.14 21.92 16.54C22.1333 16.9267 22.42 17.2333 22.78 17.46C23.1533 17.6733 23.58 17.78 24.06 17.78ZM30.9178 20V10.34H33.5578V20H30.9178ZM32.2378 8.78C31.8111 8.78 31.4578 8.64 31.1778 8.36C30.8978 8.06667 30.7578 7.70667 30.7578 7.28C30.7578 6.86667 30.8978 6.51333 31.1778 6.22C31.4578 5.92667 31.8111 5.78 32.2378 5.78C32.6778 5.78 33.0311 5.92667 33.2978 6.22C33.5778 6.51333 33.7178 6.86667 33.7178 7.28C33.7178 7.70667 33.5778 8.06667 33.2978 8.36C33.0311 8.64 32.6778 8.78 32.2378 8.78ZM41.9188 20L39.3788 16.08L38.8388 15.68L35.0788 10.34H38.1788L40.5188 13.88L41.0188 14.26L44.9987 20H41.9188ZM34.8788 20L38.8188 14.48L40.3188 16.26L37.8388 20H34.8788ZM41.1188 15.66L39.5788 13.9L41.8788 10.34H44.8187L41.1188 15.66ZM49.355 20.22C48.8083 20.22 48.2683 20.1467 47.735 20C47.215 19.8533 46.735 19.6533 46.295 19.4C45.855 19.1333 45.475 18.8133 45.155 18.44L46.715 16.86C47.0483 17.2333 47.435 17.5133 47.875 17.7C48.315 17.8867 48.8017 17.98 49.335 17.98C49.7617 17.98 50.0817 17.92 50.295 17.8C50.5217 17.68 50.635 17.5 50.635 17.26C50.635 16.9933 50.515 16.7867 50.275 16.64C50.0483 16.4933 49.7483 16.3733 49.375 16.28C49.0017 16.1733 48.6083 16.06 48.195 15.94C47.795 15.8067 47.4083 15.64 47.035 15.44C46.6617 15.2267 46.355 14.94 46.115 14.58C45.8883 14.2067 45.775 13.7267 45.775 13.14C45.775 12.5267 45.9217 11.9933 46.215 11.54C46.5217 11.0867 46.955 10.7333 47.515 10.48C48.075 10.2267 48.735 10.1 49.495 10.1C50.295 10.1 51.015 10.24 51.655 10.52C52.3083 10.8 52.8483 11.22 53.275 11.78L51.695 13.36C51.4017 13 51.0683 12.74 50.695 12.58C50.335 12.42 49.9417 12.34 49.515 12.34C49.1283 12.34 48.8283 12.4 48.615 12.52C48.415 12.64 48.315 12.8067 48.315 13.02C48.315 13.26 48.4283 13.4467 48.655 13.58C48.895 13.7133 49.2017 13.8333 49.575 13.94C49.9483 14.0333 50.335 14.1467 50.735 14.28C51.1483 14.4 51.535 14.5733 51.895 14.8C52.2683 15.0267 52.5683 15.3267 52.795 15.7C53.035 16.0733 53.155 16.5533 53.155 17.14C53.155 18.0867 52.815 18.84 52.135 19.4C51.455 19.9467 50.5283 20.22 49.355 20.22ZM59.4817 20.2C58.4951 20.2 57.6084 19.98 56.8217 19.54C56.0351 19.1 55.4151 18.5 54.9617 17.74C54.5084 16.98 54.2817 16.1267 54.2817 15.18C54.2817 14.22 54.5084 13.36 54.9617 12.6C55.4151 11.84 56.0351 11.24 56.8217 10.8C57.6217 10.3467 58.5084 10.12 59.4817 10.12C60.2417 10.12 60.9417 10.26 61.5817 10.54C62.2217 10.82 62.7751 11.22 63.2417 11.74L61.5617 13.44C61.3084 13.16 61.0017 12.9467 60.6417 12.8C60.2951 12.6533 59.9084 12.58 59.4817 12.58C59.0017 12.58 58.5684 12.6933 58.1817 12.92C57.8084 13.1333 57.5084 13.4333 57.2817 13.82C57.0684 14.1933 56.9617 14.64 56.9617 15.16C56.9617 15.6667 57.0684 16.12 57.2817 16.52C57.5084 16.9067 57.8084 17.2133 58.1817 17.44C58.5684 17.6533 59.0017 17.76 59.4817 17.76C59.9217 17.76 60.3151 17.6867 60.6617 17.54C61.0217 17.38 61.3284 17.1533 61.5817 16.86L63.2817 18.56C62.7884 19.0933 62.2217 19.5 61.5817 19.78C60.9417 20.06 60.2417 20.2 59.4817 20.2ZM64.7655 20V10.34H67.3855V20H64.7655ZM67.3855 14.66L66.3655 13.98C66.4855 12.7933 66.8321 11.86 67.4055 11.18C67.9788 10.4867 68.8055 10.14 69.8855 10.14C70.3521 10.14 70.7721 10.22 71.1455 10.38C71.5188 10.5267 71.8588 10.7733 72.1655 11.12L70.5255 13C70.3788 12.84 70.1988 12.72 69.9855 12.64C69.7855 12.56 69.5521 12.52 69.2855 12.52C68.7255 12.52 68.2655 12.7 67.9055 13.06C67.5588 13.4067 67.3855 13.94 67.3855 14.66ZM73.0858 20V10.34H75.7258V20H73.0858ZM74.4058 8.78C73.9791 8.78 73.6258 8.64 73.3458 8.36C73.0658 8.06667 72.9258 7.70667 72.9258 7.28C72.9258 6.86667 73.0658 6.51333 73.3458 6.22C73.6258 5.92667 73.9791 5.78 74.4058 5.78C74.8458 5.78 75.1991 5.92667 75.4658 6.22C75.7458 6.51333 75.8858 6.86667 75.8858 7.28C75.8858 7.70667 75.7458 8.06667 75.4658 8.36C75.1991 8.64 74.8458 8.78 74.4058 8.78ZM83.4067 20.2C82.7134 20.2 82.0867 20.0533 81.5267 19.76C80.9667 19.4667 80.5201 19.0667 80.1867 18.56C79.8534 18.0533 79.6734 17.4867 79.6467 16.86V13.42C79.6734 12.7933 79.8534 12.2333 80.1867 11.74C80.5334 11.2333 80.9867 10.84 81.5467 10.56C82.1067 10.28 82.7267 10.14 83.4067 10.14C84.3001 10.14 85.1001 10.36 85.8067 10.8C86.5134 11.24 87.0667 11.84 87.4667 12.6C87.8801 13.36 88.0867 14.22 88.0867 15.18C88.0867 16.1267 87.8801 16.98 87.4667 17.74C87.0667 18.5 86.5134 19.1 85.8067 19.54C85.1001 19.98 84.3001 20.2 83.4067 20.2ZM78.0467 20V5.54H80.6667V12.72L80.2267 15.04L80.6467 17.4V20H78.0467ZM82.9667 17.78C83.4467 17.78 83.8667 17.6733 84.2267 17.46C84.6001 17.2333 84.8867 16.9267 85.0867 16.54C85.3001 16.14 85.4067 15.68 85.4067 15.16C85.4067 14.6533 85.3001 14.2067 85.0867 13.82C84.8867 13.42 84.6001 13.1133 84.2267 12.9C83.8534 12.6733 83.4267 12.56 82.9467 12.56C82.4667 12.56 82.0401 12.6733 81.6667 12.9C81.3067 13.1133 81.0201 13.42 80.8067 13.82C80.6067 14.2067 80.5067 14.6533 80.5067 15.16C80.5067 15.68 80.6067 16.14 80.8067 16.54C81.0201 16.9267 81.3134 17.2333 81.6867 17.46C82.0601 17.6733 82.4867 17.78 82.9667 17.78ZM94.4245 20.2C93.4112 20.2 92.5112 19.9867 91.7245 19.56C90.9379 19.12 90.3112 18.52 89.8445 17.76C89.3912 17 89.1645 16.1333 89.1645 15.16C89.1645 14.2 89.3845 13.3467 89.8245 12.6C90.2779 11.84 90.8912 11.24 91.6645 10.8C92.4379 10.3467 93.2979 10.12 94.2445 10.12C95.1779 10.12 95.9979 10.3333 96.7045 10.76C97.4245 11.1733 97.9845 11.7467 98.3845 12.48C98.7979 13.2 99.0045 14.02 99.0045 14.94C99.0045 15.1133 98.9912 15.2933 98.9645 15.48C98.9512 15.6533 98.9179 15.8533 98.8645 16.08L90.7445 16.1V14.14L97.6445 14.12L96.5845 14.94C96.5579 14.3667 96.4512 13.8867 96.2645 13.5C96.0912 13.1133 95.8312 12.82 95.4845 12.62C95.1512 12.4067 94.7379 12.3 94.2445 12.3C93.7245 12.3 93.2712 12.42 92.8845 12.66C92.4979 12.8867 92.1979 13.2133 91.9845 13.64C91.7845 14.0533 91.6845 14.5467 91.6845 15.12C91.6845 15.7067 91.7912 16.22 92.0045 16.66C92.2312 17.0867 92.5512 17.42 92.9645 17.66C93.3779 17.8867 93.8579 18 94.4045 18C94.8979 18 95.3445 17.92 95.7445 17.76C96.1445 17.5867 96.4912 17.3333 96.7845 17L98.3245 18.54C97.8579 19.0867 97.2845 19.5 96.6045 19.78C95.9379 20.06 95.2112 20.2 94.4245 20.2Z" fill="black"/>
<g clip-path="url(#clip0_2_4)">
<path d="M11.7312 19.6628C12.0451 19.5741 12.3325 19.41 12.5684 19.1848C12.8043 18.9595 12.9816 18.68 13.0847 18.3706L16 9.625L15.5409 9.16594L10.85 13.8569C10.9434 14.0525 11 14.2687 11 14.5C11 15.3284 10.3284 16 9.5 16C8.67156 16 8 15.3284 8 14.5C8 13.6716 8.67156 13 9.5 13C9.73125 13 9.9475 13.0566 10.1431 13.15L14.8341 8.45906L14.375 8L5.62938 10.9153C5.31996 11.0184 5.04046 11.1957 4.81523 11.4316C4.59001 11.6675 4.42589 11.9549 4.33719 12.2687L3 17L7 21L11.7312 19.6628ZM0.439375 21.6822L2.31781 23.5606C2.90375 24.1466 3.85406 24.1466 4.44 23.5606L6.20719 21.7934L2.20656 17.7928L0.439375 19.56C-0.146563 20.1459 -0.146563 21.0959 0.439375 21.6822Z" fill="#8200DB"/>
</g>
<path fill-rule="evenodd" clip-rule="evenodd" d="M8.95299 7.49414L7.8223 7.37128L8.49405 8.28906L8.37098 9.42011L9.28897 8.74801L10.4201 8.87114L9.74792 7.95309L9.87098 6.82204L8.95299 7.49414Z" fill="#8200DB"/>
<defs>
<clipPath id="clip0_2_4">
<rect width="16" height="16" fill="white" transform="matrix(-1 0 0 -1 16 24)"/>
</clipPath>
</defs>
</svg>
