<svg width="19" height="16" viewBox="0 0 19 16" fill="none" xmlns="http://www.w3.org/2000/svg">
<path d="M16.358 11.762C16.4553 11.6647 16.571 11.616 16.705 11.616C16.839 11.616 16.9547 11.6647 17.052 11.762L18.646 13.362C18.7433 13.4593 18.792 13.5773 18.792 13.716C18.792 13.8547 18.7433 13.9727 18.646 14.07C18.5487 14.1673 18.4307 14.216 18.292 14.216C18.1533 14.216 18.0353 14.1673 17.938 14.07L16.338 12.475C16.2407 12.3777 16.1953 12.259 16.202 12.119C16.2087 11.979 16.2613 11.86 16.358 11.762ZM17.05 0.147C17.1473 0.244333 17.196 0.363 17.196 0.503C17.196 0.643 17.1473 0.762 17.05 0.86L15.455 2.454C15.3577 2.55133 15.242 2.6 15.108 2.6C14.974 2.6 14.8583 2.55133 14.761 2.454C14.6637 2.35667 14.615 2.238 14.615 2.098C14.615 1.958 14.6637 1.839 14.761 1.741L16.342 0.147C16.4393 0.0489998 16.5573 0 16.696 0C16.8347 0 16.9527 0.0489998 17.05 0.147ZM1.742 0.166C1.83933 0.0686666 1.95833 0.02 2.099 0.02C2.239 0.02 2.358 0.0686666 2.456 0.166L4.05 1.746C4.14733 1.844 4.196 1.96233 4.196 2.101C4.196 2.239 4.14733 2.357 4.05 2.455C3.95267 2.55233 3.83367 2.601 3.693 2.601C3.553 2.601 3.43433 2.55233 3.337 2.455L1.742 0.86C1.64467 0.762666 1.596 0.647 1.596 0.513C1.596 0.379 1.64467 0.263333 1.742 0.166ZM2.435 11.782C2.53233 11.8793 2.581 11.995 2.581 12.129C2.581 12.263 2.53233 12.3787 2.435 12.476L0.84 14.07C0.742667 14.1673 0.627 14.216 0.493 14.216C0.359 14.216 0.243333 14.1673 0.146 14.07C0.0486666 13.9727 0 13.8537 0 13.713C0 13.5723 0.0486666 13.4533 0.146 13.356L1.726 11.762C1.824 11.6647 1.94233 11.619 2.081 11.625C2.219 11.6317 2.337 11.6847 2.435 11.782ZM9.396 13.076L4.881 15.786C4.77433 15.8387 4.67567 15.86 4.585 15.85C4.49367 15.8393 4.405 15.808 4.319 15.756C4.233 15.7027 4.16767 15.6273 4.123 15.53C4.07833 15.4313 4.07433 15.325 4.111 15.211L5.308 10.14L1.325 6.696C1.235 6.62267 1.179 6.535 1.157 6.433C1.13433 6.33167 1.14367 6.234 1.185 6.14C1.22633 6.046 1.28133 5.96967 1.35 5.911C1.41867 5.85233 1.512 5.81267 1.63 5.792L6.865 5.348L8.913 0.532C8.95833 0.422 9.02367 0.342667 9.109 0.294C9.19433 0.245333 9.29 0.221333 9.396 0.222C9.502 0.222667 9.598 0.247 9.684 0.295C9.77 0.343 9.835 0.422333 9.879 0.533L11.946 5.349L17.181 5.793C17.299 5.813 17.3923 5.853 17.461 5.913C17.5303 5.971 17.5857 6.047 17.627 6.141C17.6683 6.235 17.6777 6.33267 17.655 6.434C17.6323 6.536 17.576 6.62367 17.486 6.697L13.504 10.141L14.7 15.231C14.7373 15.345 14.7333 15.448 14.688 15.54C14.6427 15.632 14.5773 15.7043 14.492 15.757C14.406 15.809 14.3177 15.84 14.227 15.85C14.1357 15.8607 14.0367 15.8397 13.93 15.787L9.396 13.076Z" fill="#8200DB"/>
</svg>
