<svg width="28" height="28" viewBox="0 0 28 28" fill="none" xmlns="http://www.w3.org/2000/svg">
<rect x="1" y="1" width="26" height="26" rx="6" fill="#E0E9FF"/>
<rect x="1" y="1" width="26" height="26" rx="6" stroke="#E0E9FF" stroke-width="2"/>
<path d="M13 6L12.5 5L12 6L11 6.125L11.834 6.833L11.5 8L12.5 7.334L13.5 8L13.166 6.833L14 6.125L13 6ZM21.334 16.666L20.5 15L19.666 16.666L18 16.875L19.389 18.056L18.834 20L20.5 18.889L22.166 20L21.611 18.056L23 16.875L21.334 16.666ZM8.667 8.333L8 7L7.333 8.333L6 8.5L7.111 9.444L6.667 11L8 10.111L9.333 11L8.889 9.444L10 8.5L8.667 8.333ZM5.414 19C5.414 19.534 5.622 20.036 6 20.414L7.586 22C7.964 22.378 8.466 22.586 9 22.586C9.534 22.586 10.036 22.378 10.414 22L22 10.414C22.378 10.036 22.586 9.534 22.586 9C22.586 8.466 22.378 7.964 22 7.586L20.414 6C19.658 5.244 18.342 5.244 17.586 6L6 17.586C5.622 17.964 5.414 18.466 5.414 19ZM19 7.414L20.586 9L17 12.586L15.414 11L19 7.414Z" fill="#8200DB"/>
</svg>
