<svg width="28" height="28" viewBox="0 0 28 28" fill="none" xmlns="http://www.w3.org/2000/svg">
<rect x="1" y="1" width="26" height="26" rx="6" fill="#E0E9FF"/>
<rect x="1" y="1" width="26" height="26" rx="6" stroke="#E0E9FF" stroke-width="2"/>
<path d="M11.75 14C11.75 13.4033 11.9871 12.831 12.409 12.409C12.831 11.9871 13.4033 11.75 14 11.75C14.5967 11.75 15.169 11.9871 15.591 12.409C16.0129 12.831 16.25 13.4033 16.25 14C16.25 14.5967 16.0129 15.169 15.591 15.591C15.169 16.0129 14.5967 16.25 14 16.25C13.4033 16.25 12.831 16.0129 12.409 15.591C11.9871 15.169 11.75 14.5967 11.75 14Z" fill="#8200DB"/>
<path fill-rule="evenodd" clip-rule="evenodd" d="M4 14C4 15.64 4.425 16.191 5.275 17.296C6.972 19.5 9.818 22 14 22C18.182 22 21.028 19.5 22.725 17.296C23.575 16.192 24 15.639 24 14C24 12.36 23.575 11.809 22.725 10.704C21.028 8.5 18.182 6 14 6C9.818 6 6.972 8.5 5.275 10.704C4.425 11.81 4 12.361 4 14ZM14 10.25C13.0054 10.25 12.0516 10.6451 11.3483 11.3483C10.6451 12.0516 10.25 13.0054 10.25 14C10.25 14.9946 10.6451 15.9484 11.3483 16.6517C12.0516 17.3549 13.0054 17.75 14 17.75C14.9946 17.75 15.9484 17.3549 16.6517 16.6517C17.3549 15.9484 17.75 14.9946 17.75 14C17.75 13.0054 17.3549 12.0516 16.6517 11.3483C15.9484 10.6451 14.9946 10.25 14 10.25Z" fill="#8200DB"/>
</svg>
