<svg width="16" height="18" viewBox="0 0 16 18" fill="none" xmlns="http://www.w3.org/2000/svg">
<g clip-path="url(#clip0_2_10)">
<path d="M11.7312 13.6628C12.0451 13.5741 12.3325 13.41 12.5684 13.1848C12.8043 12.9595 12.9816 12.68 13.0847 12.3706L16 3.62499L15.5409 3.16593L10.85 7.85687C10.9434 8.05249 11 8.26874 11 8.49999C11 9.32843 10.3284 9.99999 9.5 9.99999C8.67156 9.99999 8 9.32843 8 8.49999C8 7.67155 8.67156 6.99999 9.5 6.99999C9.73125 6.99999 9.9475 7.05655 10.1431 7.14999L14.8341 2.45905L14.375 1.99999L5.62938 4.9153C5.31996 5.01844 5.04046 5.19568 4.81523 5.43158C4.59001 5.66748 4.42589 5.95488 4.33719 6.26874L3 11L7 15L11.7312 13.6628ZM0.439375 15.6822L2.31781 17.5606C2.90375 18.1466 3.85406 18.1466 4.44 17.5606L6.20719 15.7934L2.20656 11.7928L0.439375 13.56C-0.146563 14.1459 -0.146563 15.0959 0.439375 15.6822Z" fill="#8200DB"/>
</g>
<path fill-rule="evenodd" clip-rule="evenodd" d="M8.95299 1.49413L7.8223 1.37127L8.49405 2.28906L8.37098 3.42011L9.28897 2.748L10.4201 2.87114L9.74792 1.95308L9.87098 0.822031L8.95299 1.49413Z" fill="#8200DB"/>
<defs>
<clipPath id="clip0_2_10">
<rect width="16" height="16" fill="white" transform="matrix(-1 0 0 -1 16 18)"/>
</clipPath>
</defs>
</svg>
